<svg width="23" height="22" viewBox="0 0 23 22" fill="none" xmlns="http://www.w3.org/2000/svg">
<g id="teenyicons:telegram-solid" clip-path="url(#clip0_1_690)">
<path id="Vector" d="M22.4897 2.32025C22.5107 2.19429 22.4984 2.06505 22.454 1.94531C22.4097 1.82557 22.3348 1.71949 22.2369 1.63755C22.1389 1.55562 22.0213 1.50068 21.8956 1.47816C21.7699 1.45565 21.6406 1.46634 21.5203 1.50919L0.986931 8.84252C0.851584 8.89079 0.733399 8.97775 0.647056 9.09261C0.560714 9.20747 0.510019 9.34517 0.501269 9.4886C0.49252 9.63203 0.526101 9.77487 0.597842 9.89937C0.669583 10.0239 0.776321 10.1246 0.904798 10.1889L6.77146 13.1223C6.88708 13.1801 7.01594 13.2064 7.14498 13.1984C7.27403 13.1904 7.39866 13.1485 7.50626 13.0768L12.3756 9.82959L9.46133 13.4757C9.39791 13.5551 9.35167 13.6468 9.32555 13.7449C9.29942 13.8431 9.29397 13.9456 9.30956 14.046C9.32514 14.1464 9.36141 14.2424 9.41606 14.3281C9.47072 14.4137 9.54257 14.4871 9.62706 14.5435L18.4271 20.4101C18.529 20.4779 18.6462 20.519 18.7681 20.5299C18.89 20.5407 19.0126 20.5209 19.1249 20.4722C19.2372 20.4235 19.3355 20.3475 19.4108 20.2511C19.4862 20.1547 19.5362 20.041 19.5564 19.9203L22.4897 2.32025Z" fill="white"/>
</g>
<defs>
<clipPath id="clip0_1_690">
<rect width="22" height="22" fill="white" transform="translate(0.5)"/>
</clipPath>
</defs>
</svg>
